<?xml version="1.0" standalone="no"?>
<!DOCTYPE svg PUBLIC "-//W3C//DTD SVG 20010904//EN"
 "http://www.w3.org/TR/2001/REC-SVG-20010904/DTD/svg10.dtd">
<svg version="1.0" xmlns="http://www.w3.org/2000/svg"
 width="212.000000pt" height="182.000000pt" viewBox="0 0 212.000000 182.000000"
 preserveAspectRatio="xMidYMid meet">

<g transform="translate(0.000000,182.000000) scale(0.100000,-0.100000)"
fill="#000000" stroke="none">
<path d="M934 1255 c-18 -14 -18 -14 8 -15 34 0 59 10 52 21 -8 14 -38 11 -60
-6z"/>
<path d="M1330 1079 c0 -5 5 -7 10 -4 6 3 10 8 10 11 0 2 -4 4 -10 4 -5 0 -10
-5 -10 -11z"/>
<path d="M835 1040 c-3 -6 4 -14 17 -19 13 -5 33 -21 45 -35 13 -14 31 -26 40
-26 13 1 7 11 -22 36 -51 46 -72 57 -80 44z"/>
<path d="M395 1030 c3 -5 8 -10 11 -10 2 0 4 5 4 10 0 6 -5 10 -11 10 -5 0 -7
-4 -4 -10z"/>
<path d="M1542 1008 c-14 -14 -16 -45 -2 -53 18 -11 50 15 50 40 0 27 -27 34
-48 13z"/>
<path d="M476 991 c-4 -5 -3 -16 0 -25 8 -21 54 -33 63 -17 5 8 27 0 72 -26
91 -55 118 -67 126 -60 18 19 -128 117 -175 117 -12 0 -24 5 -27 10 -8 12 -52
13 -59 1z"/>
<path d="M1095 970 c-3 -5 -21 -10 -40 -10 -36 0 -54 -15 -37 -32 22 -22 122
18 107 43 -8 12 -22 12 -30 -1z"/>
<path d="M1345 950 c-3 -5 -16 -10 -28 -10 -24 0 -157 -93 -157 -110 0 -21 39
-8 96 31 32 23 65 50 72 60 7 11 22 19 32 19 10 0 22 5 25 10 3 6 -3 10 -14
10 -11 0 -23 -4 -26 -10z"/>
<path d="M1793 929 c-17 -11 -36 -33 -42 -50 -6 -17 -21 -33 -38 -40 -35 -13
-63 -38 -63 -56 0 -8 10 -27 22 -43 l22 -30 -22 -28 c-13 -15 -35 -53 -50 -84
-24 -52 -30 -57 -58 -58 -18 0 -51 -9 -75 -20 -57 -25 -96 -26 -104 -1 -3 11
-17 27 -31 36 -20 13 -23 19 -13 31 6 8 20 14 30 14 11 0 19 7 19 15 0 24 -24
18 -127 -32 -77 -38 -103 -69 -113 -139 -12 -84 -25 -112 -56 -120 -22 -6 -31
-1 -51 25 -32 40 -54 39 -94 -4 -19 -19 -37 -35 -41 -35 -4 0 -12 19 -18 43
-24 90 -53 106 -109 60 -30 -26 -32 -30 -21 -58 6 -16 10 -56 9 -88 -1 -33 2
-62 9 -69 19 -19 74 4 100 42 28 42 42 49 42 20 0 -29 16 -57 40 -70 16 -9 29
-6 60 11 22 13 40 28 40 35 0 15 48 54 66 54 25 0 15 -29 -16 -45 -25 -13 -30
-22 -30 -50 0 -45 21 -46 60 -4 27 30 29 31 51 15 25 -17 95 -21 118 -7 8 5
12 24 11 52 -5 94 8 129 50 132 15 1 26 11 32 29 6 17 17 28 29 28 17 0 19 -8
19 -65 0 -59 3 -69 27 -91 36 -34 68 -40 99 -19 20 13 24 22 19 38 -4 12 -9
47 -12 77 -4 50 -2 57 21 79 22 21 29 23 50 13 15 -7 27 -23 31 -44 4 -18 9
-36 12 -41 8 -13 42 13 58 43 20 39 19 47 -6 46 -30 -1 -43 24 -35 68 8 41 45
86 70 86 9 0 23 -17 32 -37 l15 -38 29 35 c16 19 45 51 65 71 34 33 36 39 33
90 -3 51 -4 54 -33 59 -26 4 -32 11 -41 51 -15 57 -31 89 -47 89 -7 0 -26 -9
-44 -21z m-14 -147 c5 -9 12 -34 16 -54 6 -31 4 -38 -18 -52 -31 -21 -55 -12
-63 23 -3 14 -7 32 -10 39 -6 20 26 62 47 62 10 0 23 -8 28 -18z"/>
<path d="M380 870 c0 -5 3 -10 8 -10 4 0 31 -18 60 -40 58 -44 92 -52 92 -20
0 13 -9 22 -27 26 -16 3 -49 17 -74 30 -52 27 -59 28 -59 14z"/>
<path d="M1553 839 c-24 -9 -31 -43 -13 -54 15 -9 47 4 54 22 10 24 -14 43
-41 32z"/>
<path d="M1310 773 c-74 -25 -169 -108 -148 -129 8 -8 123 52 155 81 16 13 39
33 53 44 23 19 23 20 5 20 -11 0 -40 -7 -65 -16z"/>
<path d="M974 765 c-9 -24 6 -37 34 -30 25 6 42 21 42 38 0 14 -70 7 -76 -8z"/>
<path d="M395 710 c3 -5 11 -10 16 -10 6 0 7 5 4 10 -3 6 -11 10 -16 10 -6 0
-7 -4 -4 -10z"/>
<path d="M460 670 c19 -16 41 -29 48 -30 15 0 72 40 72 52 0 4 -35 8 -77 8
l-77 0 34 -30z"/>
<path d="M287 670 c-26 -21 -36 -53 -19 -64 5 -3 15 -30 22 -60 11 -49 11 -58
-4 -81 -9 -14 -21 -25 -26 -25 -20 0 -9 -32 19 -61 31 -30 61 -38 61 -16 0 25
46 59 76 55 43 -5 66 -53 69 -145 3 -107 28 -121 128 -71 l37 18 0 69 c0 56 4
71 21 86 16 16 19 26 13 60 -3 22 -13 58 -22 79 -15 39 -15 39 14 64 20 17 23
22 9 17 -61 -21 -133 -35 -185 -35 l-60 0 -24 48 c-28 55 -41 68 -76 77 -18 4
-34 0 -53 -15z"/>
<path d="M1540 665 c-9 -11 -10 -19 -3 -26 14 -14 53 6 53 26 0 20 -34 19 -50
0z"/>
<path d="M1100 630 c0 -5 5 -10 10 -10 6 0 10 5 10 10 0 6 -4 10 -10 10 -5 0
-10 -4 -10 -10z"/>
<path d="M980 605 c-18 -22 -1 -37 36 -33 21 2 29 8 29 23 0 26 -46 33 -65 10z"/>
<path d="M1065 450 c-3 -5 -2 -10 4 -10 5 0 13 5 16 10 3 6 2 10 -4 10 -5 0
-13 -4 -16 -10z"/>
<path d="M982 437 c-10 -11 -9 -17 2 -26 23 -19 61 -10 61 14 0 25 -46 33 -63
12z"/>
</g>
</svg>
